<?xml version="1.0" encoding="UTF-8"?>
<svg version="1.1" xmlns="http://www.w3.org/2000/svg" width="520" height="502">
<path d="M0 0 C1.02738281 0.17160645 2.05476563 0.34321289 3.11328125 0.52001953 C41.22065205 7.09248376 78.55008874 21.20743337 110 44 C111.02738281 44.73605469 112.05476563 45.47210938 113.11328125 46.23046875 C119.68415614 51.04570132 125.91657379 56.21208442 132.08984375 61.51953125 C133.97827134 63.12913061 135.90708792 64.69293148 137.87890625 66.19921875 C138.92884766 67.09060547 138.92884766 67.09060547 140 68 C140 68.66 140 69.32 140 70 C140.556875 70.226875 141.11375 70.45375 141.6875 70.6875 C144.66159588 72.37550036 146.72008865 74.46676517 149 77 C149 77.66 149 78.32 149 79 C149.66 79 150.32 79 151 79 C152.5078125 80.4609375 152.5078125 80.4609375 154.125 82.375 C154.93324219 83.31472656 154.93324219 83.31472656 155.7578125 84.2734375 C157 86 157 86 157 88 C157.66 88 158.32 88 159 88 C160.7265625 89.8984375 160.7265625 89.8984375 162.625 92.375 C163.25664062 93.18710938 163.88828125 93.99921875 164.5390625 94.8359375 C166 97 166 97 166 99 C166.66 99 167.32 99 168 99 C169.38525391 100.70556641 169.38525391 100.70556641 170.9765625 103.1015625 C171.56091064 103.97699707 172.14525879 104.85243164 172.74731445 105.75439453 C173.36695068 106.70169434 173.98658691 107.64899414 174.625 108.625 C175.25946045 109.58905762 175.8939209 110.55311523 176.54760742 111.54638672 C203.52042692 152.82814729 217.25543617 198.47362937 217.1875 247.75 C217.18709213 248.87051758 217.18709213 248.87051758 217.18667603 250.01367188 C217.16808989 261.13799639 216.73611494 272.0009427 215 283 C214.81322069 284.39688487 214.62837497 285.79402943 214.4453125 287.19140625 C210.7592612 313.62200186 201.63165696 339.55478314 189 363 C188.40960938 364.12019531 187.81921875 365.24039062 187.2109375 366.39453125 C179.11642268 381.18854877 169.16674395 395.03222891 158.01171875 407.6640625 C155.98658179 409.82283505 155.98658179 409.82283505 155 412 C154.34 412 153.68 412 153 412 C153 412.66 153 413.32 153 414 C152.34 414 151.68 414 151 414 C150.773125 414.55171875 150.54625 415.1034375 150.3125 415.671875 C148.61274074 418.68692417 146.45195184 420.81230369 144 423.25 C143.113125 424.14203125 142.22625 425.0340625 141.3125 425.953125 C139 428 139 428 137 428 C137 428.66 137 429.32 137 430 C136.34 430 135.68 430 135 430 C135 430.66 135 431.32 135 432 C132.80644768 433.87001078 130.60515924 435.63431966 128.3125 437.375 C127.05849131 438.34101287 125.80458335 439.30715651 124.55078125 440.2734375 C123.94572754 440.73459961 123.34067383 441.19576172 122.71728516 441.67089844 C121.17472134 442.86477353 119.6686646 444.10546747 118.16796875 445.3515625 C116 447 116 447 114 447 C114 447.66 114 448.32 114 449 C111.57122289 450.67543433 109.14811829 452.22855546 106.625 453.75 C105.88548096 454.20246094 105.14596191 454.65492188 104.3840332 455.12109375 C102.91139998 456.02068722 101.43690462 456.91724038 99.96044922 457.81054688 C98.42577734 458.74167034 96.90046928 459.68823085 95.37890625 460.640625 C83.0483195 468.28954512 70.2135081 474.94610333 56.515625 479.74609375 C53.00601003 480.9504319 53.00601003 480.9504319 49.71484375 482.4453125 C34.97822034 488.86765061 18.7747907 492.27996102 3 495 C1.19789063 495.32097656 1.19789063 495.32097656 -0.640625 495.6484375 C-14.23726035 497.91454339 -27.87798727 498.20535889 -41.625 498.1875 C-42.41614197 498.18722809 -43.20728394 498.18695618 -44.0223999 498.18667603 C-56.1200311 498.16759459 -68.01490603 497.76950123 -80 496 C-80.7317041 495.89816406 -81.4634082 495.79632813 -82.21728516 495.69140625 C-122.34981561 490.02193171 -160.06814202 475.07872243 -193.39160156 452.09570312 C-196.40080022 450.0457208 -199.48296032 448.10471758 -202.55859375 446.15625 C-203.03425781 445.7746875 -203.50992188 445.393125 -204 445 C-204 444.34 -204 443.68 -204 443 C-205.051875 442.6596875 -205.051875 442.6596875 -206.125 442.3125 C-209.74128535 440.66158712 -212.08769976 438.7091165 -215 436 C-215 435.34 -215 434.68 -215 434 C-215.556875 433.7525 -216.11375 433.505 -216.6875 433.25 C-219.42410913 431.77075182 -221.67650869 430.06532561 -224 428 C-224 427.34 -224 426.68 -224 426 C-224.8353125 425.6596875 -224.8353125 425.6596875 -225.6875 425.3125 C-228.66159588 423.62449964 -230.72008865 421.53323483 -233 419 C-233 418.34 -233 417.68 -233 417 C-233.66 417 -234.32 417 -235 417 C-237.58208213 414.58026435 -239.74989657 411.72482509 -242 409 C-242.48452637 408.41573242 -242.96905273 407.83146484 -243.46826172 407.22949219 C-245.09195324 405.26431196 -246.70382198 403.28998396 -248.3125 401.3125 C-248.84020996 400.67111084 -249.36791992 400.02972168 -249.91162109 399.36889648 C-252.58751212 396.04538978 -254.69639897 393.13202024 -256 389 C-256.66 389 -257.32 389 -258 389 C-259.12573242 387.53808594 -259.12573242 387.53808594 -260.35546875 385.484375 C-260.80921875 384.73470459 -261.26296875 383.98503418 -261.73046875 383.21264648 C-262.21128906 382.39997314 -262.69210937 381.5872998 -263.1875 380.75 C-263.68507813 379.91734619 -264.18265625 379.08469238 -264.6953125 378.22680664 C-265.68941714 376.56119722 -266.68084067 374.89398435 -267.66943359 373.22509766 C-268.71816672 371.47130798 -269.8003831 369.73754006 -270.89453125 368.01171875 C-288.14599304 340.35061578 -296.99370386 307.50163893 -300.7175293 275.40478516 C-300.89337542 273.90773732 -301.08257348 272.41212096 -301.29223633 270.91943359 C-302.29515969 263.35508729 -302.19997366 255.74139736 -302.1875 248.125 C-302.18656342 247.38846191 -302.18562683 246.65192383 -302.18466187 245.89306641 C-302.07682862 206.75438086 -293.04660434 168.26418777 -274.04321289 133.93408203 C-272.98498327 131.97215948 -271.99535131 129.98651934 -271.015625 127.984375 C-265.22032689 116.29707197 -257.63375668 105.6870405 -249.35595703 95.6484375 C-248.06534974 94.0794457 -246.79574158 92.49325012 -245.52734375 90.90625 C-239.85952787 83.96821263 -233.74864955 77.54476571 -227.4375 71.1875 C-226.65826172 70.39899658 -225.87902344 69.61049316 -225.07617188 68.7980957 C-219.68628729 63.43701289 -214.00466634 58.65502634 -208 54 C-206.94745947 53.15322381 -205.89637753 52.30462671 -204.84765625 51.453125 C-169.28396455 23.32139692 -124.96515867 4.85513444 -80 -1 C-78.70191406 -1.18433594 -77.40382812 -1.36867187 -76.06640625 -1.55859375 C-51.05634861 -4.7746016 -24.83466659 -4.18126368 0 0 Z " fill="#000000" transform="translate(303,4)"/>
<path d="M0 0 C0.93875977 -0.00428513 1.87751953 -0.00857025 2.84472656 -0.01298523 C4.81444498 -0.01868616 6.78418443 -0.01926039 8.75390625 -0.01489258 C11.7425567 -0.01172663 14.73022098 -0.03526612 17.71875 -0.06054688 C19.6458321 -0.06281994 21.57291683 -0.06352333 23.5 -0.0625 C24.37946289 -0.07170975 25.25892578 -0.08091949 26.16503906 -0.09040833 C34.58314914 -0.02856633 41.99003788 2.24166893 49.5625 5.86328125 C52.11860531 7.07526028 54.64092339 8.25829701 57.27734375 9.28515625 C67.28118987 13.39416098 76.35932368 20.4995118 83.75 28.30078125 C84.925625 29.44546875 84.925625 29.44546875 86.125 30.61328125 C108.59674794 53.62007081 126.39461374 84.34753075 138.33984375 114.109375 C140.44854037 118.88168841 142.96261941 123.42132499 145.4440918 128.0078125 C148.16779644 133.08430036 150.50168523 138.2129275 152.62109375 143.57421875 C154.14188643 147.24727512 155.96136265 150.73684234 157.83203125 154.2421875 C158.75 156.30078125 158.75 156.30078125 158.75 159.30078125 C159.74 159.30078125 160.73 159.30078125 161.75 159.30078125 C161.68942321 142.60204593 161.61189354 125.90348824 161.51428509 109.20493221 C161.46935537 101.45116982 161.42993424 93.69745307 161.40356445 85.94360352 C161.38056144 79.18386644 161.34713781 72.42427413 161.30129844 65.66465193 C161.2773971 62.08680147 161.25864817 58.50909412 161.25238609 54.9311657 C161.24519297 50.93298865 161.21473144 46.93530847 161.18237305 42.93725586 C161.18380814 41.75617752 161.18524323 40.57509918 161.1867218 39.35823059 C161.07979518 30.01954321 159.21636113 24.17712349 152.83203125 17.21484375 C149.20551279 13.8808962 145.06774704 11.62320579 140.75 9.30078125 C139.04142998 8.34286995 137.33308172 7.38456297 135.625 6.42578125 C134.33430637 5.71567645 133.04302352 5.00663467 131.75 4.30078125 C131.75 3.31078125 131.75 2.32078125 131.75 1.30078125 C155.84 1.30078125 179.93 1.30078125 204.75 1.30078125 C204.75 2.62078125 204.75 3.94078125 204.75 5.30078125 C203.92757813 5.51992187 203.10515625 5.7390625 202.2578125 5.96484375 C190.18371026 9.39466956 180.60942156 13.87867392 174.19490051 24.9960022 C171.66673111 31.04210521 172.34152025 37.74675035 172.37768555 44.18115234 C172.37525514 45.69465891 172.37153341 47.20816387 172.36662292 48.72166443 C172.35724267 52.81891727 172.36661604 56.91593 172.37995505 61.01316404 C172.39130403 65.31042212 172.38715927 69.60766897 172.38520813 73.90493774 C172.38432605 81.12253725 172.39538589 88.34004268 172.41381836 95.55761719 C172.4349686 103.88675294 172.43849872 112.21575077 172.4322564 120.54490793 C172.42654852 128.57370525 172.43222619 136.6024543 172.44342995 144.63124466 C172.44805874 148.04010542 172.44895724 151.44893649 172.4468441 154.85779953 C172.44495132 158.87813727 172.4531407 162.89833599 172.4689045 166.91864204 C172.47312364 168.38873914 172.47401398 169.8588504 172.47121429 171.32895088 C172.4588337 178.99691752 172.81861019 185.87717366 174.75 193.30078125 C174.89998073 195.66643568 174.85095283 197.9283897 174.75 200.30078125 C175.41 200.30078125 176.07 200.30078125 176.75 200.30078125 C176.99492187 200.87183594 177.23984375 201.44289063 177.4921875 202.03125 C180.03246071 207.541015 183.05599999 212.33027084 186.75 217.11328125 C187.37237549 217.92091919 187.37237549 217.92091919 188.00732422 218.74487305 C190.71214501 222.17399064 193.61819763 225.26195426 196.75 228.30078125 C197.54148437 229.11804688 198.33296875 229.9353125 199.1484375 230.77734375 C202.08278625 233.62357392 205.15593046 236.16202346 208.375 238.67578125 C208.98746582 239.15474854 209.59993164 239.63371582 210.23095703 240.12719727 C217.90895651 246.05783814 225.92761786 251.24058818 234.75 255.30078125 C236.3896875 256.10515625 236.3896875 256.10515625 238.0625 256.92578125 C250.40315267 261.52738055 266.55871944 262.81292847 278.75 257.30078125 C287.19425386 253.87368005 287.19425386 253.87368005 291.75 254.30078125 C291.75 258.30078125 291.75 258.30078125 289.73828125 260.35546875 C286.25332878 262.62410448 282.83860758 264.03855767 278.9375 265.42578125 C278.26396484 265.67714844 277.59042969 265.92851562 276.89648438 266.1875 C274.85915937 266.93224464 272.81112314 267.62495415 270.75 268.30078125 C268.99429688 268.87699219 268.99429688 268.87699219 267.203125 269.46484375 C261.37790995 270.8489827 255.34881304 270.59802076 249.39624023 270.56152344 C247.32050237 270.5508225 245.24563313 270.5614527 243.16992188 270.57421875 C234.19368353 270.58430449 226.16766641 269.97929666 217.8125 266.42578125 C214.14430407 264.87799253 214.14430407 264.87799253 210.421875 263.46875 C191.26847514 256.524057 176.62657995 242.71759097 162.75 228.30078125 C162.07066406 227.60339844 161.39132812 226.90601563 160.69140625 226.1875 C151.7085773 216.47225814 144.70138057 204.49840609 137.75 193.30078125 C137.1621875 192.36878906 136.574375 191.43679688 135.96875 190.4765625 C131.62838427 183.53019849 127.50663102 176.47122827 123.4375 169.36328125 C122.9216333 168.46303223 122.4057666 167.5627832 121.87426758 166.63525391 C119.37302056 162.2436011 116.97379829 157.84103609 114.75 153.30078125 C109.88170462 143.85621236 104.82142486 134.53460791 99.4765625 125.3515625 C97.79335571 122.37738942 96.26414868 119.36393115 94.75 116.30078125 C93.41307033 113.70824951 92.05241241 111.12866776 90.6875 108.55078125 C90.33623047 107.87917969 89.98496094 107.20757812 89.62304688 106.515625 C88.1838867 103.80053643 86.93591718 101.48669843 84.75 99.30078125 C84.358125 98.35203125 83.96625 97.40328125 83.5625 96.42578125 C76.61027959 79.72682047 64.92411013 63.42535866 53.75 49.30078125 C53.06164062 48.42035156 52.37328125 47.53992188 51.6640625 46.6328125 C49.71718175 44.16750949 47.7449532 41.72729576 45.75 39.30078125 C45.11835938 38.5325 44.48671875 37.76421875 43.8359375 36.97265625 C42.92714844 35.89757812 42.92714844 35.89757812 42 34.80078125 C41.46890625 34.17171875 40.9378125 33.54265625 40.390625 32.89453125 C38.62700472 31.18130012 36.95673191 30.34792835 34.75 29.30078125 C34.74043327 49.72885301 34.7651232 70.1566118 34.8302784 90.58458519 C34.85973975 100.07028311 34.87811077 109.55575749 34.87011719 119.04150391 C34.86317607 127.31204278 34.87730485 135.58223551 34.91643608 143.85268939 C34.93641672 148.22947233 34.94604867 152.60571218 34.93042374 156.98252487 C34.91602903 161.10816439 34.92995573 165.23276947 34.96495247 169.35827637 C34.97287512 170.86663601 34.9707378 172.37509 34.95739174 173.88341141 C34.87520051 184.03681223 36.26421286 191.40393781 43.3697834 199.04193687 C48.64215268 204.09915918 55.490968 207.59242244 61.75 211.30078125 C61.42 212.29078125 61.09 213.28078125 60.75 214.30078125 C39.3 214.30078125 17.85 214.30078125 -4.25 214.30078125 C-4.25 212.98078125 -4.25 211.66078125 -4.25 210.30078125 C-3.4765625 209.99785156 -2.703125 209.69492187 -1.90625 209.3828125 C9.38902284 204.83954063 17.71008621 200.95570114 22.75 189.30078125 C23.21286457 185.86864705 23.21286457 185.86864705 23.17132568 182.16577148 C23.18469573 181.1231259 23.18469573 181.1231259 23.19833589 180.05941677 C23.2242409 177.74262459 23.22890772 175.42630022 23.23339844 173.109375 C23.24729361 171.44335956 23.26236902 169.77735361 23.27853394 168.11135864 C23.31779696 163.59492965 23.33721733 159.07863419 23.35056591 154.56206131 C23.35937143 151.7394253 23.37168797 148.91682549 23.38507843 146.09420776 C23.42606496 137.25971306 23.45508764 128.42530144 23.4666841 119.59071827 C23.48013947 109.39690345 23.53285771 99.20429282 23.61968589 89.01084423 C23.68451543 81.12616855 23.71479543 73.24183198 23.71880746 65.35689259 C23.72195191 60.64914911 23.73967555 55.94253952 23.7932663 51.2350769 C23.84268124 46.80875208 23.84919524 42.38441469 23.82284927 37.95791245 C23.82053672 36.33491569 23.833588 34.71181243 23.86322403 33.08908463 C24.29755027 24.50621 24.29755027 24.50621 20.83913422 17.03807068 C18.51128061 15.42909503 16.38463244 14.31998344 13.75 13.30078125 C12.52481722 12.79896835 12.52481722 12.79896835 11.27488327 12.28701782 C4.27430743 9.63430547 -3.04815292 9.80277581 -10.4375 9.86328125 C-12.36480957 9.87464111 -12.36480957 9.87464111 -14.33105469 9.88623047 C-26.69225786 10.10086733 -37.52213512 11.36352904 -47.61328125 19.12890625 C-49.25 20.30078125 -49.25 20.30078125 -51.25 20.30078125 C-51.25 20.96078125 -51.25 21.62078125 -51.25 22.30078125 C-53.625 24.92578125 -53.625 24.92578125 -56.25 27.30078125 C-56.91 27.30078125 -57.57 27.30078125 -58.25 27.30078125 C-58.51683594 28.01492187 -58.78367187 28.7290625 -59.05859375 29.46484375 C-60.6736423 33.30918882 -62.79557999 36.79866025 -64.91015625 40.38671875 C-68.35080731 47.86988402 -67.43616559 56.67119366 -67.43530273 64.75097656 C-67.4374809 67.03079135 -67.45565267 69.31011479 -67.47460938 71.58984375 C-67.51564006 81.9995708 -67.48536982 92.16461758 -62.25 101.44921875 C-61.25 103.30078125 -61.25 103.30078125 -60.3203125 105.7578125 C-54.35579922 119.9289736 -38.36542618 131.78325653 -24.9140625 137.9765625 C-22.43379656 139.20942196 -20.398472 140.56469369 -18.25 142.30078125 C-18.58 143.62078125 -18.91 144.94078125 -19.25 146.30078125 C-35.78032369 147.70961566 -50.96578532 141.04332573 -63.984375 131.2421875 C-66.77132919 128.85405606 -68.9382016 126.14607158 -71.25 123.30078125 C-71.88808594 122.68203125 -72.52617188 122.06328125 -73.18359375 121.42578125 C-80.12060741 114.29206588 -83.4547409 105.6633964 -86.25 96.30078125 C-86.58 95.64078125 -86.91 94.98078125 -87.25 94.30078125 C-87.42246367 91.66733605 -87.53465372 89.0623791 -87.59375 86.42578125 C-87.61183716 85.63310852 -87.62992432 84.84043579 -87.64855957 84.02374268 C-88.03304442 63.46986521 -88.18188417 46.51822582 -74.14453125 30.05078125 C-72.25 28.30078125 -72.25 28.30078125 -70.13671875 27.30078125 C-67.71754871 26.01857104 -67.37174604 24.75115272 -66.25 22.30078125 C-60.35640329 15.50413343 -52.27207617 11.94200731 -44.25 8.30078125 C-43.55132812 7.97078125 -42.85265625 7.64078125 -42.1328125 7.30078125 C-35.91019266 4.64579678 -29.01840049 3.83046611 -22.39089966 2.69485474 C-20.92615016 2.42523961 -19.46667004 2.12575915 -18.01315308 1.80099487 C-11.94545934 0.45744133 -6.20386541 -0.00642921 0 0 Z " fill="#F8F8F8" transform="translate(158.25,116.69921875)"/>
<path d="M0 0 C1.94852562 3.89705124 2.24858483 5.22739893 2.24050903 9.37835693 C2.24325836 10.46928146 2.24600769 11.56020599 2.24884033 12.68418884 C2.24164978 13.87605301 2.23445923 15.06791718 2.22705078 16.29589844 C2.22734283 17.55469315 2.22763489 18.81348785 2.22793579 20.11042786 C2.22850947 23.55848532 2.21675276 27.00640356 2.20278788 30.45442867 C2.19028304 34.05923188 2.18911021 37.66403831 2.18673706 41.26885986 C2.18052157 48.09341432 2.16410982 54.91790469 2.14403808 61.74243093 C2.12168124 69.51262075 2.11068619 77.28281364 2.10064721 85.05302763 C2.07974364 101.03538887 2.04456632 117.01768617 2 133 C1.01 133 0.02 133 -1 133 C-0.67 89.11 -0.34 45.22 0 0 Z " fill="#454545" transform="translate(318,143)"/>
<path d="M0 0 C0.66 0.33 1.32 0.66 2 1 C1.22914063 1.75925781 0.45828125 2.51851562 -0.3359375 3.30078125 C-1.34909096 4.30455366 -2.36210448 5.30846732 -3.375 6.3125 C-3.88289063 6.81201172 -4.39078125 7.31152344 -4.9140625 7.82617188 C-7.22854133 10.12542387 -9.18347483 12.27521225 -11 15 C-10.47462592 10.93190071 -9.38599539 8.82396544 -6.625 5.8125 C-6.01914062 5.13832031 -5.41328125 4.46414062 -4.7890625 3.76953125 C-3 2 -3 2 0 0 Z " fill="#2D2D2D" transform="translate(344,128)"/>
<path d="M0 0 C0.66 0.33 1.32 0.66 2 1 C-1.96 4.96 -5.92 8.92 -10 13 C-10 9.45595664 -9.39010515 8.89732095 -7.125 6.3125 C-6.59132813 5.68988281 -6.05765625 5.06726563 -5.5078125 4.42578125 C-4 3 -4 3 -2 3 C-2 2.34 -2 1.68 -2 1 C-1.34 0.67 -0.68 0.34 0 0 Z " fill="#2B2B2B" transform="translate(109,136)"/>
</svg>
